{"title":"My Soul T0 Take 2010 DvDRip.x264.Feel-Free","uid":6122124,"size":1175924693,"categoryP":"video","categoryS":"movies","magnet":"?xt=urn:btih:e7762dc7bd7002714a23ed9ec77f87023ed919d1&amp;dn=My+Soul+T0+Take+2010+DvDRip.x264.Feel-Free&amp;tr=udp%3A%2F%2Ftracker.openbittorrent.com%3A80&amp;tr=udp%3A%2F%2Fopen.demonii.com%3A1337&amp;tr=udp%3A%2F%2Ftracker.coppersurfer.tk%3A6969&amp;tr=udp%3A%2F%2Fexodus.desync.com%3A6969","seeders":0,"leechers":0,"uploader":"neon","files":-1,"time":1295796056,"description":"Genre:Thriller | Horror\nLanguage:English\n &lt;a href=&quot; http://www.imdb.com/title/tt0872230/&quot; rel=&quot;nofollow&quot; target=&quot;_NEW&quot;&gt; http://www.imdb.com/title/tt0872230/&lt;/a&gt;\nSource:DVD\nSubtitles:Romana\n\n\nFormat : Matroska\nFile size : 1.09 GiB\nDuration : 1h 47mn\nOverall bit rate : 1 459 Kbps\n\n\nVideo\nFormat settings, CABAC : Yes\nFormat settings, ReFrames : 4 frames\nCodec ID : V_MPEG4/ISO/AVC\nDuration : 1h 47mn\nBit rate : 1 000 Kbps\nWidth : 720 pixels\nHeight : 304 pixels\nDisplay aspect ratio : 2.35:1\nFrame rate mode : Variable\nFrame rate : 23.976 fps\nColor space : YUV\nChroma subsampling : 4:2:0\nBit depth : 8 bits\nScan type : Progressive\nBits/(Pixel*Frame) : 0.191\nStream size : 754 MiB (67%)\nWriting library : x264\n\nAudio\nID : 2\nFormat : AC-3\nFormat/Info : Audio Coding 3\nMode extension : CM (complete main)\nCodec ID : A_AC3\nDuration : 1h 47mn\nBit rate mode : Constant\nBit rate : 448 Kbps\nChannel(s) : 6 channels\nChannel positions : Front: L C R, Side: L R, LFE\nSampling rate : 48.0 KHz\nBit depth : 16 bits\nVideo delay : -1mn 5s\nStream size : 344 MiB (31%)\nLanguage : English\n\n\nPlot:\nA serial killer returns to his hometown to stalk seven children who share the same birthday as the date he was allegedly put to rest.\n &lt;a href=&quot;\nhttp://shareimage.org/images/ahoosiac70k6zo781j7b.png&quot; rel=&quot;nofollow&quot; target=&quot;_NEW&quot;&gt;\nhttp://shareimage.org/images/ahoosiac70k6zo781j7b.png&lt;/a&gt; &lt;a href=&quot;\nhttp://shareimage.org/images/q2m7ihtly19mm0pg4pba.png&quot; rel=&quot;nofollow&quot; target=&quot;_NEW&quot;&gt;\nhttp://shareimage.org/images/q2m7ihtly19mm0pg4pba.png&lt;/a&gt; &lt;a href=&quot;\nhttp://shareimage.org/images/zl6dzwfakxhixrf2jag0.png&quot; rel=&quot;nofollow&quot; target=&quot;_NEW&quot;&gt;\nhttp://shareimage.org/images/zl6dzwfakxhixrf2jag0.png&lt;/a&gt; &lt;a href=&quot;\nhttp://shareimage.org/images/4xj915ifs5ea0auom9.png&quot; rel=&quot;nofollow&quot; target=&quot;_NEW&quot;&gt;\nhttp://shareimage.org/images/4xj915ifs5ea0auom9.png&lt;/a&gt; &lt;a href=&quot;\nhttp://shareimage.org/images/83qz5x6o2ximl5nr6xuq.png&quot; rel=&quot;nofollow&quot; target=&quot;_NEW&quot;&gt;\nhttp://shareimage.org/images/83qz5x6o2ximl5nr6xuq.png&lt;/a&gt;","torrent":{"xt":"urn:btih:e7762dc7bd7002714a23ed9ec77f87023ed919d1","amp;dn":"My+Soul+T0+Take+2010+DvDRip.x264.Feel-Free","amp;tr":["udp%3A%2F%2Ftracker.openbittorrent.com%3A80","udp%3A%2F%2Fopen.demonii.com%3A1337","udp%3A%2F%2Ftracker.coppersurfer.tk%3A6969","udp%3A%2F%2Fexodus.desync.com%3A6969"],"infoHash":"e7762dc7bd7002714a23ed9ec77f87023ed919d1","infoHashBuffer":{"type":"Buffer","data":[231,118,45,199,189,112,2,113,74,35,237,158,199,127,135,2,62,217,25,209]},"announce":[],"urlList":[]}}